<?xml version="1.0" standalone="no"?>
<svg xmlns="http://www.w3.org/2000/svg" version="1.1" width="255" height="255">
	<!-- Created with https://api.qrserver.com (QR Code API, see goQR.me/api for information) -->
	<title>QR Code</title>
	<desc>BEGIN:VCARD
VERSION:2.1
FN:Vicky Katara
N:Katara;Vicky
TEL;HOME;VOICE:+919867728292
EMAIL;WORK;INTERNET:vicky.p.katara@gmail.com
URL:http://vickykatara.orgfree.com/
END:VCARD
</desc>
	<rect style="fill:rgb(255, 255, 255);fill-opacity:1" x="0" y="0" width="255" height="255" />
	<g id="elements">
		<path style="fill:rgb(221, 162, 221)" d="M 5,5 l 5,0 0,5 -5,0 z M 10,5 l 5,0 0,5 -5,0 z M 15,5 l 5,0 0,5 -5,0 z M 20,5 l 5,0 0,5 -5,0 z M 25,5 l 5,0 0,5 -5,0 z M 30,5 l 5,0 0,5 -5,0 z M 35,5 l 5,0 0,5 -5,0 z M 50,5 l 5,0 0,5 -5,0 z M 55,5 l 5,0 0,5 -5,0 z M 65,5 l 5,0 0,5 -5,0 z M 75,5 l 5,0 0,5 -5,0 z M 85,5 l 5,0 0,5 -5,0 z M 90,5 l 5,0 0,5 -5,0 z M 120,5 l 5,0 0,5 -5,0 z M 135,5 l 5,0 0,5 -5,0 z M 140,5 l 5,0 0,5 -5,0 z M 145,5 l 5,0 0,5 -5,0 z M 170,5 l 5,0 0,5 -5,0 z M 205,5 l 5,0 0,5 -5,0 z M 215,5 l 5,0 0,5 -5,0 z M 220,5 l 5,0 0,5 -5,0 z M 225,5 l 5,0 0,5 -5,0 z M 230,5 l 5,0 0,5 -5,0 z M 235,5 l 5,0 0,5 -5,0 z M 240,5 l 5,0 0,5 -5,0 z M 245,5 l 5,0 0,5 -5,0 z M 5,10 l 5,0 0,5 -5,0 z M 35,10 l 5,0 0,5 -5,0 z M 45,10 l 5,0 0,5 -5,0 z M 50,10 l 5,0 0,5 -5,0 z M 55,10 l 5,0 0,5 -5,0 z M 60,10 l 5,0 0,5 -5,0 z M 70,10 l 5,0 0,5 -5,0 z M 75,10 l 5,0 0,5 -5,0 z M 80,10 l 5,0 0,5 -5,0 z M 90,10 l 5,0 0,5 -5,0 z M 110,10 l 5,0 0,5 -5,0 z M 115,10 l 5,0 0,5 -5,0 z M 130,10 l 5,0 0,5 -5,0 z M 140,10 l 5,0 0,5 -5,0 z M 150,10 l 5,0 0,5 -5,0 z M 175,10 l 5,0 0,5 -5,0 z M 190,10 l 5,0 0,5 -5,0 z M 195,10 l 5,0 0,5 -5,0 z M 200,10 l 5,0 0,5 -5,0 z M 205,10 l 5,0 0,5 -5,0 z M 215,10 l 5,0 0,5 -5,0 z M 245,10 l 5,0 0,5 -5,0 z M 5,15 l 5,0 0,5 -5,0 z M 15,15 l 5,0 0,5 -5,0 z M 20,15 l 5,0 0,5 -5,0 z M 25,15 l 5,0 0,5 -5,0 z M 35,15 l 5,0 0,5 -5,0 z M 50,15 l 5,0 0,5 -5,0 z M 55,15 l 5,0 0,5 -5,0 z M 75,15 l 5,0 0,5 -5,0 z M 85,15 l 5,0 0,5 -5,0 z M 125,15 l 5,0 0,5 -5,0 z M 135,15 l 5,0 0,5 -5,0 z M 145,15 l 5,0 0,5 -5,0 z M 155,15 l 5,0 0,5 -5,0 z M 160,15 l 5,0 0,5 -5,0 z M 165,15 l 5,0 0,5 -5,0 z M 170,15 l 5,0 0,5 -5,0 z M 200,15 l 5,0 0,5 -5,0 z M 205,15 l 5,0 0,5 -5,0 z M 215,15 l 5,0 0,5 -5,0 z M 225,15 l 5,0 0,5 -5,0 z M 230,15 l 5,0 0,5 -5,0 z M 235,15 l 5,0 0,5 -5,0 z M 245,15 l 5,0 0,5 -5,0 z M 5,20 l 5,0 0,5 -5,0 z M 15,20 l 5,0 0,5 -5,0 z M 20,20 l 5,0 0,5 -5,0 z M 25,20 l 5,0 0,5 -5,0 z M 35,20 l 5,0 0,5 -5,0 z M 45,20 l 5,0 0,5 -5,0 z M 60,20 l 5,0 0,5 -5,0 z M 70,20 l 5,0 0,5 -5,0 z M 75,20 l 5,0 0,5 -5,0 z M 90,20 l 5,0 0,5 -5,0 z M 100,20 l 5,0 0,5 -5,0 z M 110,20 l 5,0 0,5 -5,0 z M 115,20 l 5,0 0,5 -5,0 z M 120,20 l 5,0 0,5 -5,0 z M 125,20 l 5,0 0,5 -5,0 z M 130,20 l 5,0 0,5 -5,0 z M 135,20 l 5,0 0,5 -5,0 z M 140,20 l 5,0 0,5 -5,0 z M 160,20 l 5,0 0,5 -5,0 z M 180,20 l 5,0 0,5 -5,0 z M 185,20 l 5,0 0,5 -5,0 z M 200,20 l 5,0 0,5 -5,0 z M 215,20 l 5,0 0,5 -5,0 z M 225,20 l 5,0 0,5 -5,0 z M 230,20 l 5,0 0,5 -5,0 z M 235,20 l 5,0 0,5 -5,0 z M 245,20 l 5,0 0,5 -5,0 z M 5,25 l 5,0 0,5 -5,0 z M 15,25 l 5,0 0,5 -5,0 z M 20,25 l 5,0 0,5 -5,0 z M 25,25 l 5,0 0,5 -5,0 z M 35,25 l 5,0 0,5 -5,0 z M 50,25 l 5,0 0,5 -5,0 z M 55,25 l 5,0 0,5 -5,0 z M 60,25 l 5,0 0,5 -5,0 z M 65,25 l 5,0 0,5 -5,0 z M 80,25 l 5,0 0,5 -5,0 z M 95,25 l 5,0 0,5 -5,0 z M 115,25 l 5,0 0,5 -5,0 z M 120,25 l 5,0 0,5 -5,0 z M 125,25 l 5,0 0,5 -5,0 z M 130,25 l 5,0 0,5 -5,0 z M 135,25 l 5,0 0,5 -5,0 z M 140,25 l 5,0 0,5 -5,0 z M 150,25 l 5,0 0,5 -5,0 z M 155,25 l 5,0 0,5 -5,0 z M 160,25 l 5,0 0,5 -5,0 z M 180,25 l 5,0 0,5 -5,0 z M 215,25 l 5,0 0,5 -5,0 z M 225,25 l 5,0 0,5 -5,0 z M 230,25 l 5,0 0,5 -5,0 z M 235,25 l 5,0 0,5 -5,0 z M 245,25 l 5,0 0,5 -5,0 z M 5,30 l 5,0 0,5 -5,0 z M 35,30 l 5,0 0,5 -5,0 z M 45,30 l 5,0 0,5 -5,0 z M 50,30 l 5,0 0,5 -5,0 z M 70,30 l 5,0 0,5 -5,0 z M 75,30 l 5,0 0,5 -5,0 z M 95,30 l 5,0 0,5 -5,0 z M 100,30 l 5,0 0,5 -5,0 z M 110,30 l 5,0 0,5 -5,0 z M 115,30 l 5,0 0,5 -5,0 z M 135,30 l 5,0 0,5 -5,0 z M 145,30 l 5,0 0,5 -5,0 z M 175,30 l 5,0 0,5 -5,0 z M 195,30 l 5,0 0,5 -5,0 z M 215,30 l 5,0 0,5 -5,0 z M 245,30 l 5,0 0,5 -5,0 z M 5,35 l 5,0 0,5 -5,0 z M 10,35 l 5,0 0,5 -5,0 z M 15,35 l 5,0 0,5 -5,0 z M 20,35 l 5,0 0,5 -5,0 z M 25,35 l 5,0 0,5 -5,0 z M 30,35 l 5,0 0,5 -5,0 z M 35,35 l 5,0 0,5 -5,0 z M 45,35 l 5,0 0,5 -5,0 z M 55,35 l 5,0 0,5 -5,0 z M 65,35 l 5,0 0,5 -5,0 z M 75,35 l 5,0 0,5 -5,0 z M 85,35 l 5,0 0,5 -5,0 z M 95,35 l 5,0 0,5 -5,0 z M 105,35 l 5,0 0,5 -5,0 z M 115,35 l 5,0 0,5 -5,0 z M 125,35 l 5,0 0,5 -5,0 z M 135,35 l 5,0 0,5 -5,0 z M 145,35 l 5,0 0,5 -5,0 z M 155,35 l 5,0 0,5 -5,0 z M 165,35 l 5,0 0,5 -5,0 z M 175,35 l 5,0 0,5 -5,0 z M 185,35 l 5,0 0,5 -5,0 z M 195,35 l 5,0 0,5 -5,0 z M 205,35 l 5,0 0,5 -5,0 z M 215,35 l 5,0 0,5 -5,0 z M 220,35 l 5,0 0,5 -5,0 z M 225,35 l 5,0 0,5 -5,0 z M 230,35 l 5,0 0,5 -5,0 z M 235,35 l 5,0 0,5 -5,0 z M 240,35 l 5,0 0,5 -5,0 z M 245,35 l 5,0 0,5 -5,0 z M 50,40 l 5,0 0,5 -5,0 z M 55,40 l 5,0 0,5 -5,0 z M 80,40 l 5,0 0,5 -5,0 z M 95,40 l 5,0 0,5 -5,0 z M 115,40 l 5,0 0,5 -5,0 z M 135,40 l 5,0 0,5 -5,0 z M 145,40 l 5,0 0,5 -5,0 z M 160,40 l 5,0 0,5 -5,0 z M 165,40 l 5,0 0,5 -5,0 z M 170,40 l 5,0 0,5 -5,0 z M 175,40 l 5,0 0,5 -5,0 z M 180,40 l 5,0 0,5 -5,0 z M 190,40 l 5,0 0,5 -5,0 z M 200,40 l 5,0 0,5 -5,0 z M 205,40 l 5,0 0,5 -5,0 z M 5,45 l 5,0 0,5 -5,0 z M 10,45 l 5,0 0,5 -5,0 z M 15,45 l 5,0 0,5 -5,0 z M 20,45 l 5,0 0,5 -5,0 z M 25,45 l 5,0 0,5 -5,0 z M 35,45 l 5,0 0,5 -5,0 z M 40,45 l 5,0 0,5 -5,0 z M 45,45 l 5,0 0,5 -5,0 z M 55,45 l 5,0 0,5 -5,0 z M 60,45 l 5,0 0,5 -5,0 z M 65,45 l 5,0 0,5 -5,0 z M 75,45 l 5,0 0,5 -5,0 z M 80,45 l 5,0 0,5 -5,0 z M 85,45 l 5,0 0,5 -5,0 z M 95,45 l 5,0 0,5 -5,0 z M 100,45 l 5,0 0,5 -5,0 z M 110,45 l 5,0 0,5 -5,0 z M 115,45 l 5,0 0,5 -5,0 z M 120,45 l 5,0 0,5 -5,0 z M 125,45 l 5,0 0,5 -5,0 z M 130,45 l 5,0 0,5 -5,0 z M 135,45 l 5,0 0,5 -5,0 z M 140,45 l 5,0 0,5 -5,0 z M 145,45 l 5,0 0,5 -5,0 z M 165,45 l 5,0 0,5 -5,0 z M 170,45 l 5,0 0,5 -5,0 z M 175,45 l 5,0 0,5 -5,0 z M 185,45 l 5,0 0,5 -5,0 z M 195,45 l 5,0 0,5 -5,0 z M 205,45 l 5,0 0,5 -5,0 z M 210,45 l 5,0 0,5 -5,0 z M 220,45 l 5,0 0,5 -5,0 z M 230,45 l 5,0 0,5 -5,0 z M 240,45 l 5,0 0,5 -5,0 z M 30,50 l 5,0 0,5 -5,0 z M 60,50 l 5,0 0,5 -5,0 z M 80,50 l 5,0 0,5 -5,0 z M 120,50 l 5,0 0,5 -5,0 z M 125,50 l 5,0 0,5 -5,0 z M 130,50 l 5,0 0,5 -5,0 z M 140,50 l 5,0 0,5 -5,0 z M 145,50 l 5,0 0,5 -5,0 z M 155,50 l 5,0 0,5 -5,0 z M 160,50 l 5,0 0,5 -5,0 z M 170,50 l 5,0 0,5 -5,0 z M 185,50 l 5,0 0,5 -5,0 z M 200,50 l 5,0 0,5 -5,0 z M 205,50 l 5,0 0,5 -5,0 z M 215,50 l 5,0 0,5 -5,0 z M 225,50 l 5,0 0,5 -5,0 z M 235,50 l 5,0 0,5 -5,0 z M 240,50 l 5,0 0,5 -5,0 z M 15,55 l 5,0 0,5 -5,0 z M 20,55 l 5,0 0,5 -5,0 z M 30,55 l 5,0 0,5 -5,0 z M 35,55 l 5,0 0,5 -5,0 z M 95,55 l 5,0 0,5 -5,0 z M 100,55 l 5,0 0,5 -5,0 z M 110,55 l 5,0 0,5 -5,0 z M 115,55 l 5,0 0,5 -5,0 z M 120,55 l 5,0 0,5 -5,0 z M 125,55 l 5,0 0,5 -5,0 z M 140,55 l 5,0 0,5 -5,0 z M 150,55 l 5,0 0,5 -5,0 z M 160,55 l 5,0 0,5 -5,0 z M 175,55 l 5,0 0,5 -5,0 z M 180,55 l 5,0 0,5 -5,0 z M 185,55 l 5,0 0,5 -5,0 z M 190,55 l 5,0 0,5 -5,0 z M 200,55 l 5,0 0,5 -5,0 z M 210,55 l 5,0 0,5 -5,0 z M 225,55 l 5,0 0,5 -5,0 z M 5,60 l 5,0 0,5 -5,0 z M 10,60 l 5,0 0,5 -5,0 z M 20,60 l 5,0 0,5 -5,0 z M 40,60 l 5,0 0,5 -5,0 z M 45,60 l 5,0 0,5 -5,0 z M 50,60 l 5,0 0,5 -5,0 z M 60,60 l 5,0 0,5 -5,0 z M 65,60 l 5,0 0,5 -5,0 z M 70,60 l 5,0 0,5 -5,0 z M 80,60 l 5,0 0,5 -5,0 z M 85,60 l 5,0 0,5 -5,0 z M 90,60 l 5,0 0,5 -5,0 z M 95,60 l 5,0 0,5 -5,0 z M 105,60 l 5,0 0,5 -5,0 z M 115,60 l 5,0 0,5 -5,0 z M 125,60 l 5,0 0,5 -5,0 z M 130,60 l 5,0 0,5 -5,0 z M 140,60 l 5,0 0,5 -5,0 z M 155,60 l 5,0 0,5 -5,0 z M 165,60 l 5,0 0,5 -5,0 z M 185,60 l 5,0 0,5 -5,0 z M 195,60 l 5,0 0,5 -5,0 z M 215,60 l 5,0 0,5 -5,0 z M 225,60 l 5,0 0,5 -5,0 z M 235,60 l 5,0 0,5 -5,0 z M 245,60 l 5,0 0,5 -5,0 z M 10,65 l 5,0 0,5 -5,0 z M 15,65 l 5,0 0,5 -5,0 z M 20,65 l 5,0 0,5 -5,0 z M 30,65 l 5,0 0,5 -5,0 z M 35,65 l 5,0 0,5 -5,0 z M 40,65 l 5,0 0,5 -5,0 z M 55,65 l 5,0 0,5 -5,0 z M 65,65 l 5,0 0,5 -5,0 z M 80,65 l 5,0 0,5 -5,0 z M 95,65 l 5,0 0,5 -5,0 z M 110,65 l 5,0 0,5 -5,0 z M 130,65 l 5,0 0,5 -5,0 z M 135,65 l 5,0 0,5 -5,0 z M 150,65 l 5,0 0,5 -5,0 z M 155,65 l 5,0 0,5 -5,0 z M 160,65 l 5,0 0,5 -5,0 z M 170,65 l 5,0 0,5 -5,0 z M 180,65 l 5,0 0,5 -5,0 z M 185,65 l 5,0 0,5 -5,0 z M 195,65 l 5,0 0,5 -5,0 z M 200,65 l 5,0 0,5 -5,0 z M 205,65 l 5,0 0,5 -5,0 z M 215,65 l 5,0 0,5 -5,0 z M 220,65 l 5,0 0,5 -5,0 z M 230,65 l 5,0 0,5 -5,0 z M 235,65 l 5,0 0,5 -5,0 z M 240,65 l 5,0 0,5 -5,0 z M 245,65 l 5,0 0,5 -5,0 z M 20,70 l 5,0 0,5 -5,0 z M 25,70 l 5,0 0,5 -5,0 z M 40,70 l 5,0 0,5 -5,0 z M 45,70 l 5,0 0,5 -5,0 z M 55,70 l 5,0 0,5 -5,0 z M 65,70 l 5,0 0,5 -5,0 z M 70,70 l 5,0 0,5 -5,0 z M 85,70 l 5,0 0,5 -5,0 z M 90,70 l 5,0 0,5 -5,0 z M 95,70 l 5,0 0,5 -5,0 z M 100,70 l 5,0 0,5 -5,0 z M 105,70 l 5,0 0,5 -5,0 z M 120,70 l 5,0 0,5 -5,0 z M 125,70 l 5,0 0,5 -5,0 z M 155,70 l 5,0 0,5 -5,0 z M 185,70 l 5,0 0,5 -5,0 z M 190,70 l 5,0 0,5 -5,0 z M 200,70 l 5,0 0,5 -5,0 z M 210,70 l 5,0 0,5 -5,0 z M 215,70 l 5,0 0,5 -5,0 z M 220,70 l 5,0 0,5 -5,0 z M 225,70 l 5,0 0,5 -5,0 z M 230,70 l 5,0 0,5 -5,0 z M 245,70 l 5,0 0,5 -5,0 z M 10,75 l 5,0 0,5 -5,0 z M 15,75 l 5,0 0,5 -5,0 z M 20,75 l 5,0 0,5 -5,0 z M 25,75 l 5,0 0,5 -5,0 z M 35,75 l 5,0 0,5 -5,0 z M 60,75 l 5,0 0,5 -5,0 z M 80,75 l 5,0 0,5 -5,0 z M 85,75 l 5,0 0,5 -5,0 z M 105,75 l 5,0 0,5 -5,0 z M 115,75 l 5,0 0,5 -5,0 z M 120,75 l 5,0 0,5 -5,0 z M 130,75 l 5,0 0,5 -5,0 z M 135,75 l 5,0 0,5 -5,0 z M 150,75 l 5,0 0,5 -5,0 z M 160,75 l 5,0 0,5 -5,0 z M 170,75 l 5,0 0,5 -5,0 z M 175,75 l 5,0 0,5 -5,0 z M 185,75 l 5,0 0,5 -5,0 z M 200,75 l 5,0 0,5 -5,0 z M 220,75 l 5,0 0,5 -5,0 z M 245,75 l 5,0 0,5 -5,0 z M 10,80 l 5,0 0,5 -5,0 z M 15,80 l 5,0 0,5 -5,0 z M 20,80 l 5,0 0,5 -5,0 z M 30,80 l 5,0 0,5 -5,0 z M 40,80 l 5,0 0,5 -5,0 z M 45,80 l 5,0 0,5 -5,0 z M 50,80 l 5,0 0,5 -5,0 z M 60,80 l 5,0 0,5 -5,0 z M 70,80 l 5,0 0,5 -5,0 z M 85,80 l 5,0 0,5 -5,0 z M 90,80 l 5,0 0,5 -5,0 z M 95,80 l 5,0 0,5 -5,0 z M 100,80 l 5,0 0,5 -5,0 z M 105,80 l 5,0 0,5 -5,0 z M 135,80 l 5,0 0,5 -5,0 z M 145,80 l 5,0 0,5 -5,0 z M 155,80 l 5,0 0,5 -5,0 z M 160,80 l 5,0 0,5 -5,0 z M 165,80 l 5,0 0,5 -5,0 z M 170,80 l 5,0 0,5 -5,0 z M 175,80 l 5,0 0,5 -5,0 z M 180,80 l 5,0 0,5 -5,0 z M 190,80 l 5,0 0,5 -5,0 z M 215,80 l 5,0 0,5 -5,0 z M 220,80 l 5,0 0,5 -5,0 z M 225,80 l 5,0 0,5 -5,0 z M 230,80 l 5,0 0,5 -5,0 z M 235,80 l 5,0 0,5 -5,0 z M 240,80 l 5,0 0,5 -5,0 z M 245,80 l 5,0 0,5 -5,0 z M 5,85 l 5,0 0,5 -5,0 z M 10,85 l 5,0 0,5 -5,0 z M 20,85 l 5,0 0,5 -5,0 z M 25,85 l 5,0 0,5 -5,0 z M 30,85 l 5,0 0,5 -5,0 z M 35,85 l 5,0 0,5 -5,0 z M 45,85 l 5,0 0,5 -5,0 z M 50,85 l 5,0 0,5 -5,0 z M 60,85 l 5,0 0,5 -5,0 z M 80,85 l 5,0 0,5 -5,0 z M 95,85 l 5,0 0,5 -5,0 z M 125,85 l 5,0 0,5 -5,0 z M 140,85 l 5,0 0,5 -5,0 z M 155,85 l 5,0 0,5 -5,0 z M 165,85 l 5,0 0,5 -5,0 z M 170,85 l 5,0 0,5 -5,0 z M 185,85 l 5,0 0,5 -5,0 z M 190,85 l 5,0 0,5 -5,0 z M 195,85 l 5,0 0,5 -5,0 z M 205,85 l 5,0 0,5 -5,0 z M 215,85 l 5,0 0,5 -5,0 z M 225,85 l 5,0 0,5 -5,0 z M 235,85 l 5,0 0,5 -5,0 z M 240,85 l 5,0 0,5 -5,0 z M 245,85 l 5,0 0,5 -5,0 z M 5,90 l 5,0 0,5 -5,0 z M 20,90 l 5,0 0,5 -5,0 z M 25,90 l 5,0 0,5 -5,0 z M 30,90 l 5,0 0,5 -5,0 z M 40,90 l 5,0 0,5 -5,0 z M 55,90 l 5,0 0,5 -5,0 z M 60,90 l 5,0 0,5 -5,0 z M 65,90 l 5,0 0,5 -5,0 z M 75,90 l 5,0 0,5 -5,0 z M 90,90 l 5,0 0,5 -5,0 z M 95,90 l 5,0 0,5 -5,0 z M 100,90 l 5,0 0,5 -5,0 z M 110,90 l 5,0 0,5 -5,0 z M 115,90 l 5,0 0,5 -5,0 z M 125,90 l 5,0 0,5 -5,0 z M 130,90 l 5,0 0,5 -5,0 z M 170,90 l 5,0 0,5 -5,0 z M 180,90 l 5,0 0,5 -5,0 z M 185,90 l 5,0 0,5 -5,0 z M 200,90 l 5,0 0,5 -5,0 z M 205,90 l 5,0 0,5 -5,0 z M 230,90 l 5,0 0,5 -5,0 z M 235,90 l 5,0 0,5 -5,0 z M 240,90 l 5,0 0,5 -5,0 z M 10,95 l 5,0 0,5 -5,0 z M 25,95 l 5,0 0,5 -5,0 z M 30,95 l 5,0 0,5 -5,0 z M 35,95 l 5,0 0,5 -5,0 z M 45,95 l 5,0 0,5 -5,0 z M 50,95 l 5,0 0,5 -5,0 z M 55,95 l 5,0 0,5 -5,0 z M 60,95 l 5,0 0,5 -5,0 z M 65,95 l 5,0 0,5 -5,0 z M 70,95 l 5,0 0,5 -5,0 z M 75,95 l 5,0 0,5 -5,0 z M 90,95 l 5,0 0,5 -5,0 z M 110,95 l 5,0 0,5 -5,0 z M 115,95 l 5,0 0,5 -5,0 z M 125,95 l 5,0 0,5 -5,0 z M 140,95 l 5,0 0,5 -5,0 z M 145,95 l 5,0 0,5 -5,0 z M 150,95 l 5,0 0,5 -5,0 z M 160,95 l 5,0 0,5 -5,0 z M 165,95 l 5,0 0,5 -5,0 z M 180,95 l 5,0 0,5 -5,0 z M 190,95 l 5,0 0,5 -5,0 z M 195,95 l 5,0 0,5 -5,0 z M 200,95 l 5,0 0,5 -5,0 z M 210,95 l 5,0 0,5 -5,0 z M 235,95 l 5,0 0,5 -5,0 z M 245,95 l 5,0 0,5 -5,0 z M 5,100 l 5,0 0,5 -5,0 z M 10,100 l 5,0 0,5 -5,0 z M 20,100 l 5,0 0,5 -5,0 z M 25,100 l 5,0 0,5 -5,0 z M 30,100 l 5,0 0,5 -5,0 z M 40,100 l 5,0 0,5 -5,0 z M 55,100 l 5,0 0,5 -5,0 z M 60,100 l 5,0 0,5 -5,0 z M 75,100 l 5,0 0,5 -5,0 z M 85,100 l 5,0 0,5 -5,0 z M 105,100 l 5,0 0,5 -5,0 z M 110,100 l 5,0 0,5 -5,0 z M 115,100 l 5,0 0,5 -5,0 z M 120,100 l 5,0 0,5 -5,0 z M 140,100 l 5,0 0,5 -5,0 z M 160,100 l 5,0 0,5 -5,0 z M 165,100 l 5,0 0,5 -5,0 z M 170,100 l 5,0 0,5 -5,0 z M 190,100 l 5,0 0,5 -5,0 z M 200,100 l 5,0 0,5 -5,0 z M 210,100 l 5,0 0,5 -5,0 z M 215,100 l 5,0 0,5 -5,0 z M 220,100 l 5,0 0,5 -5,0 z M 235,100 l 5,0 0,5 -5,0 z M 240,100 l 5,0 0,5 -5,0 z M 15,105 l 5,0 0,5 -5,0 z M 25,105 l 5,0 0,5 -5,0 z M 30,105 l 5,0 0,5 -5,0 z M 35,105 l 5,0 0,5 -5,0 z M 50,105 l 5,0 0,5 -5,0 z M 60,105 l 5,0 0,5 -5,0 z M 70,105 l 5,0 0,5 -5,0 z M 75,105 l 5,0 0,5 -5,0 z M 90,105 l 5,0 0,5 -5,0 z M 110,105 l 5,0 0,5 -5,0 z M 125,105 l 5,0 0,5 -5,0 z M 130,105 l 5,0 0,5 -5,0 z M 150,105 l 5,0 0,5 -5,0 z M 160,105 l 5,0 0,5 -5,0 z M 185,105 l 5,0 0,5 -5,0 z M 195,105 l 5,0 0,5 -5,0 z M 235,105 l 5,0 0,5 -5,0 z M 5,110 l 5,0 0,5 -5,0 z M 10,110 l 5,0 0,5 -5,0 z M 20,110 l 5,0 0,5 -5,0 z M 25,110 l 5,0 0,5 -5,0 z M 40,110 l 5,0 0,5 -5,0 z M 45,110 l 5,0 0,5 -5,0 z M 50,110 l 5,0 0,5 -5,0 z M 60,110 l 5,0 0,5 -5,0 z M 80,110 l 5,0 0,5 -5,0 z M 95,110 l 5,0 0,5 -5,0 z M 110,110 l 5,0 0,5 -5,0 z M 115,110 l 5,0 0,5 -5,0 z M 125,110 l 5,0 0,5 -5,0 z M 135,110 l 5,0 0,5 -5,0 z M 140,110 l 5,0 0,5 -5,0 z M 150,110 l 5,0 0,5 -5,0 z M 155,110 l 5,0 0,5 -5,0 z M 160,110 l 5,0 0,5 -5,0 z M 180,110 l 5,0 0,5 -5,0 z M 185,110 l 5,0 0,5 -5,0 z M 190,110 l 5,0 0,5 -5,0 z M 200,110 l 5,0 0,5 -5,0 z M 210,110 l 5,0 0,5 -5,0 z M 245,110 l 5,0 0,5 -5,0 z M 15,115 l 5,0 0,5 -5,0 z M 20,115 l 5,0 0,5 -5,0 z M 25,115 l 5,0 0,5 -5,0 z M 30,115 l 5,0 0,5 -5,0 z M 35,115 l 5,0 0,5 -5,0 z M 40,115 l 5,0 0,5 -5,0 z M 45,115 l 5,0 0,5 -5,0 z M 50,115 l 5,0 0,5 -5,0 z M 55,115 l 5,0 0,5 -5,0 z M 65,115 l 5,0 0,5 -5,0 z M 70,115 l 5,0 0,5 -5,0 z M 75,115 l 5,0 0,5 -5,0 z M 90,115 l 5,0 0,5 -5,0 z M 95,115 l 5,0 0,5 -5,0 z M 115,115 l 5,0 0,5 -5,0 z M 120,115 l 5,0 0,5 -5,0 z M 125,115 l 5,0 0,5 -5,0 z M 130,115 l 5,0 0,5 -5,0 z M 135,115 l 5,0 0,5 -5,0 z M 150,115 l 5,0 0,5 -5,0 z M 155,115 l 5,0 0,5 -5,0 z M 175,115 l 5,0 0,5 -5,0 z M 200,115 l 5,0 0,5 -5,0 z M 205,115 l 5,0 0,5 -5,0 z M 210,115 l 5,0 0,5 -5,0 z M 215,115 l 5,0 0,5 -5,0 z M 220,115 l 5,0 0,5 -5,0 z M 225,115 l 5,0 0,5 -5,0 z M 240,115 l 5,0 0,5 -5,0 z M 10,120 l 5,0 0,5 -5,0 z M 15,120 l 5,0 0,5 -5,0 z M 20,120 l 5,0 0,5 -5,0 z M 25,120 l 5,0 0,5 -5,0 z M 45,120 l 5,0 0,5 -5,0 z M 50,120 l 5,0 0,5 -5,0 z M 55,120 l 5,0 0,5 -5,0 z M 65,120 l 5,0 0,5 -5,0 z M 70,120 l 5,0 0,5 -5,0 z M 80,120 l 5,0 0,5 -5,0 z M 90,120 l 5,0 0,5 -5,0 z M 95,120 l 5,0 0,5 -5,0 z M 110,120 l 5,0 0,5 -5,0 z M 115,120 l 5,0 0,5 -5,0 z M 135,120 l 5,0 0,5 -5,0 z M 145,120 l 5,0 0,5 -5,0 z M 160,120 l 5,0 0,5 -5,0 z M 165,120 l 5,0 0,5 -5,0 z M 175,120 l 5,0 0,5 -5,0 z M 180,120 l 5,0 0,5 -5,0 z M 185,120 l 5,0 0,5 -5,0 z M 200,120 l 5,0 0,5 -5,0 z M 205,120 l 5,0 0,5 -5,0 z M 225,120 l 5,0 0,5 -5,0 z M 230,120 l 5,0 0,5 -5,0 z M 235,120 l 5,0 0,5 -5,0 z M 240,120 l 5,0 0,5 -5,0 z M 245,120 l 5,0 0,5 -5,0 z M 5,125 l 5,0 0,5 -5,0 z M 10,125 l 5,0 0,5 -5,0 z M 20,125 l 5,0 0,5 -5,0 z M 25,125 l 5,0 0,5 -5,0 z M 35,125 l 5,0 0,5 -5,0 z M 45,125 l 5,0 0,5 -5,0 z M 65,125 l 5,0 0,5 -5,0 z M 85,125 l 5,0 0,5 -5,0 z M 95,125 l 5,0 0,5 -5,0 z M 100,125 l 5,0 0,5 -5,0 z M 115,125 l 5,0 0,5 -5,0 z M 125,125 l 5,0 0,5 -5,0 z M 135,125 l 5,0 0,5 -5,0 z M 140,125 l 5,0 0,5 -5,0 z M 150,125 l 5,0 0,5 -5,0 z M 155,125 l 5,0 0,5 -5,0 z M 165,125 l 5,0 0,5 -5,0 z M 185,125 l 5,0 0,5 -5,0 z M 190,125 l 5,0 0,5 -5,0 z M 200,125 l 5,0 0,5 -5,0 z M 205,125 l 5,0 0,5 -5,0 z M 215,125 l 5,0 0,5 -5,0 z M 225,125 l 5,0 0,5 -5,0 z M 235,125 l 5,0 0,5 -5,0 z M 240,125 l 5,0 0,5 -5,0 z M 245,125 l 5,0 0,5 -5,0 z M 10,130 l 5,0 0,5 -5,0 z M 20,130 l 5,0 0,5 -5,0 z M 25,130 l 5,0 0,5 -5,0 z M 45,130 l 5,0 0,5 -5,0 z M 55,130 l 5,0 0,5 -5,0 z M 60,130 l 5,0 0,5 -5,0 z M 65,130 l 5,0 0,5 -5,0 z M 80,130 l 5,0 0,5 -5,0 z M 90,130 l 5,0 0,5 -5,0 z M 100,130 l 5,0 0,5 -5,0 z M 105,130 l 5,0 0,5 -5,0 z M 115,130 l 5,0 0,5 -5,0 z M 135,130 l 5,0 0,5 -5,0 z M 145,130 l 5,0 0,5 -5,0 z M 155,130 l 5,0 0,5 -5,0 z M 160,130 l 5,0 0,5 -5,0 z M 170,130 l 5,0 0,5 -5,0 z M 195,130 l 5,0 0,5 -5,0 z M 200,130 l 5,0 0,5 -5,0 z M 205,130 l 5,0 0,5 -5,0 z M 225,130 l 5,0 0,5 -5,0 z M 230,130 l 5,0 0,5 -5,0 z M 235,130 l 5,0 0,5 -5,0 z M 240,130 l 5,0 0,5 -5,0 z M 5,135 l 5,0 0,5 -5,0 z M 10,135 l 5,0 0,5 -5,0 z M 25,135 l 5,0 0,5 -5,0 z M 30,135 l 5,0 0,5 -5,0 z M 35,135 l 5,0 0,5 -5,0 z M 40,135 l 5,0 0,5 -5,0 z M 45,135 l 5,0 0,5 -5,0 z M 50,135 l 5,0 0,5 -5,0 z M 60,135 l 5,0 0,5 -5,0 z M 65,135 l 5,0 0,5 -5,0 z M 95,135 l 5,0 0,5 -5,0 z M 105,135 l 5,0 0,5 -5,0 z M 115,135 l 5,0 0,5 -5,0 z M 120,135 l 5,0 0,5 -5,0 z M 125,135 l 5,0 0,5 -5,0 z M 130,135 l 5,0 0,5 -5,0 z M 135,135 l 5,0 0,5 -5,0 z M 140,135 l 5,0 0,5 -5,0 z M 150,135 l 5,0 0,5 -5,0 z M 160,135 l 5,0 0,5 -5,0 z M 180,135 l 5,0 0,5 -5,0 z M 185,135 l 5,0 0,5 -5,0 z M 190,135 l 5,0 0,5 -5,0 z M 195,135 l 5,0 0,5 -5,0 z M 205,135 l 5,0 0,5 -5,0 z M 210,135 l 5,0 0,5 -5,0 z M 215,135 l 5,0 0,5 -5,0 z M 220,135 l 5,0 0,5 -5,0 z M 225,135 l 5,0 0,5 -5,0 z M 5,140 l 5,0 0,5 -5,0 z M 20,140 l 5,0 0,5 -5,0 z M 40,140 l 5,0 0,5 -5,0 z M 45,140 l 5,0 0,5 -5,0 z M 60,140 l 5,0 0,5 -5,0 z M 70,140 l 5,0 0,5 -5,0 z M 85,140 l 5,0 0,5 -5,0 z M 90,140 l 5,0 0,5 -5,0 z M 95,140 l 5,0 0,5 -5,0 z M 100,140 l 5,0 0,5 -5,0 z M 105,140 l 5,0 0,5 -5,0 z M 115,140 l 5,0 0,5 -5,0 z M 125,140 l 5,0 0,5 -5,0 z M 130,140 l 5,0 0,5 -5,0 z M 135,140 l 5,0 0,5 -5,0 z M 150,140 l 5,0 0,5 -5,0 z M 155,140 l 5,0 0,5 -5,0 z M 165,140 l 5,0 0,5 -5,0 z M 170,140 l 5,0 0,5 -5,0 z M 180,140 l 5,0 0,5 -5,0 z M 190,140 l 5,0 0,5 -5,0 z M 195,140 l 5,0 0,5 -5,0 z M 210,140 l 5,0 0,5 -5,0 z M 215,140 l 5,0 0,5 -5,0 z M 225,140 l 5,0 0,5 -5,0 z M 235,140 l 5,0 0,5 -5,0 z M 10,145 l 5,0 0,5 -5,0 z M 15,145 l 5,0 0,5 -5,0 z M 20,145 l 5,0 0,5 -5,0 z M 35,145 l 5,0 0,5 -5,0 z M 55,145 l 5,0 0,5 -5,0 z M 65,145 l 5,0 0,5 -5,0 z M 80,145 l 5,0 0,5 -5,0 z M 95,145 l 5,0 0,5 -5,0 z M 105,145 l 5,0 0,5 -5,0 z M 120,145 l 5,0 0,5 -5,0 z M 125,145 l 5,0 0,5 -5,0 z M 130,145 l 5,0 0,5 -5,0 z M 135,145 l 5,0 0,5 -5,0 z M 160,145 l 5,0 0,5 -5,0 z M 170,145 l 5,0 0,5 -5,0 z M 175,145 l 5,0 0,5 -5,0 z M 180,145 l 5,0 0,5 -5,0 z M 185,145 l 5,0 0,5 -5,0 z M 195,145 l 5,0 0,5 -5,0 z M 220,145 l 5,0 0,5 -5,0 z M 225,145 l 5,0 0,5 -5,0 z M 240,145 l 5,0 0,5 -5,0 z M 10,150 l 5,0 0,5 -5,0 z M 20,150 l 5,0 0,5 -5,0 z M 30,150 l 5,0 0,5 -5,0 z M 45,150 l 5,0 0,5 -5,0 z M 55,150 l 5,0 0,5 -5,0 z M 70,150 l 5,0 0,5 -5,0 z M 85,150 l 5,0 0,5 -5,0 z M 90,150 l 5,0 0,5 -5,0 z M 95,150 l 5,0 0,5 -5,0 z M 105,150 l 5,0 0,5 -5,0 z M 125,150 l 5,0 0,5 -5,0 z M 130,150 l 5,0 0,5 -5,0 z M 135,150 l 5,0 0,5 -5,0 z M 140,150 l 5,0 0,5 -5,0 z M 145,150 l 5,0 0,5 -5,0 z M 150,150 l 5,0 0,5 -5,0 z M 155,150 l 5,0 0,5 -5,0 z M 160,150 l 5,0 0,5 -5,0 z M 165,150 l 5,0 0,5 -5,0 z M 180,150 l 5,0 0,5 -5,0 z M 205,150 l 5,0 0,5 -5,0 z M 210,150 l 5,0 0,5 -5,0 z M 215,150 l 5,0 0,5 -5,0 z M 225,150 l 5,0 0,5 -5,0 z M 235,150 l 5,0 0,5 -5,0 z M 240,150 l 5,0 0,5 -5,0 z M 245,150 l 5,0 0,5 -5,0 z M 15,155 l 5,0 0,5 -5,0 z M 20,155 l 5,0 0,5 -5,0 z M 25,155 l 5,0 0,5 -5,0 z M 35,155 l 5,0 0,5 -5,0 z M 40,155 l 5,0 0,5 -5,0 z M 45,155 l 5,0 0,5 -5,0 z M 55,155 l 5,0 0,5 -5,0 z M 70,155 l 5,0 0,5 -5,0 z M 80,155 l 5,0 0,5 -5,0 z M 85,155 l 5,0 0,5 -5,0 z M 90,155 l 5,0 0,5 -5,0 z M 95,155 l 5,0 0,5 -5,0 z M 110,155 l 5,0 0,5 -5,0 z M 120,155 l 5,0 0,5 -5,0 z M 125,155 l 5,0 0,5 -5,0 z M 130,155 l 5,0 0,5 -5,0 z M 140,155 l 5,0 0,5 -5,0 z M 145,155 l 5,0 0,5 -5,0 z M 165,155 l 5,0 0,5 -5,0 z M 170,155 l 5,0 0,5 -5,0 z M 175,155 l 5,0 0,5 -5,0 z M 190,155 l 5,0 0,5 -5,0 z M 195,155 l 5,0 0,5 -5,0 z M 200,155 l 5,0 0,5 -5,0 z M 205,155 l 5,0 0,5 -5,0 z M 215,155 l 5,0 0,5 -5,0 z M 220,155 l 5,0 0,5 -5,0 z M 230,155 l 5,0 0,5 -5,0 z M 240,155 l 5,0 0,5 -5,0 z M 25,160 l 5,0 0,5 -5,0 z M 40,160 l 5,0 0,5 -5,0 z M 60,160 l 5,0 0,5 -5,0 z M 65,160 l 5,0 0,5 -5,0 z M 75,160 l 5,0 0,5 -5,0 z M 85,160 l 5,0 0,5 -5,0 z M 90,160 l 5,0 0,5 -5,0 z M 95,160 l 5,0 0,5 -5,0 z M 120,160 l 5,0 0,5 -5,0 z M 125,160 l 5,0 0,5 -5,0 z M 145,160 l 5,0 0,5 -5,0 z M 155,160 l 5,0 0,5 -5,0 z M 160,160 l 5,0 0,5 -5,0 z M 165,160 l 5,0 0,5 -5,0 z M 190,160 l 5,0 0,5 -5,0 z M 200,160 l 5,0 0,5 -5,0 z M 210,160 l 5,0 0,5 -5,0 z M 220,160 l 5,0 0,5 -5,0 z M 230,160 l 5,0 0,5 -5,0 z M 235,160 l 5,0 0,5 -5,0 z M 240,160 l 5,0 0,5 -5,0 z M 10,165 l 5,0 0,5 -5,0 z M 15,165 l 5,0 0,5 -5,0 z M 30,165 l 5,0 0,5 -5,0 z M 35,165 l 5,0 0,5 -5,0 z M 40,165 l 5,0 0,5 -5,0 z M 50,165 l 5,0 0,5 -5,0 z M 55,165 l 5,0 0,5 -5,0 z M 60,165 l 5,0 0,5 -5,0 z M 65,165 l 5,0 0,5 -5,0 z M 75,165 l 5,0 0,5 -5,0 z M 95,165 l 5,0 0,5 -5,0 z M 115,165 l 5,0 0,5 -5,0 z M 130,165 l 5,0 0,5 -5,0 z M 140,165 l 5,0 0,5 -5,0 z M 145,165 l 5,0 0,5 -5,0 z M 155,165 l 5,0 0,5 -5,0 z M 165,165 l 5,0 0,5 -5,0 z M 175,165 l 5,0 0,5 -5,0 z M 185,165 l 5,0 0,5 -5,0 z M 190,165 l 5,0 0,5 -5,0 z M 195,165 l 5,0 0,5 -5,0 z M 200,165 l 5,0 0,5 -5,0 z M 240,165 l 5,0 0,5 -5,0 z M 5,170 l 5,0 0,5 -5,0 z M 10,170 l 5,0 0,5 -5,0 z M 15,170 l 5,0 0,5 -5,0 z M 20,170 l 5,0 0,5 -5,0 z M 25,170 l 5,0 0,5 -5,0 z M 40,170 l 5,0 0,5 -5,0 z M 45,170 l 5,0 0,5 -5,0 z M 50,170 l 5,0 0,5 -5,0 z M 55,170 l 5,0 0,5 -5,0 z M 60,170 l 5,0 0,5 -5,0 z M 70,170 l 5,0 0,5 -5,0 z M 95,170 l 5,0 0,5 -5,0 z M 105,170 l 5,0 0,5 -5,0 z M 110,170 l 5,0 0,5 -5,0 z M 125,170 l 5,0 0,5 -5,0 z M 130,170 l 5,0 0,5 -5,0 z M 135,170 l 5,0 0,5 -5,0 z M 145,170 l 5,0 0,5 -5,0 z M 160,170 l 5,0 0,5 -5,0 z M 170,170 l 5,0 0,5 -5,0 z M 175,170 l 5,0 0,5 -5,0 z M 180,170 l 5,0 0,5 -5,0 z M 185,170 l 5,0 0,5 -5,0 z M 195,170 l 5,0 0,5 -5,0 z M 210,170 l 5,0 0,5 -5,0 z M 225,170 l 5,0 0,5 -5,0 z M 235,170 l 5,0 0,5 -5,0 z M 240,170 l 5,0 0,5 -5,0 z M 245,170 l 5,0 0,5 -5,0 z M 15,175 l 5,0 0,5 -5,0 z M 20,175 l 5,0 0,5 -5,0 z M 25,175 l 5,0 0,5 -5,0 z M 35,175 l 5,0 0,5 -5,0 z M 40,175 l 5,0 0,5 -5,0 z M 50,175 l 5,0 0,5 -5,0 z M 60,175 l 5,0 0,5 -5,0 z M 70,175 l 5,0 0,5 -5,0 z M 75,175 l 5,0 0,5 -5,0 z M 90,175 l 5,0 0,5 -5,0 z M 100,175 l 5,0 0,5 -5,0 z M 115,175 l 5,0 0,5 -5,0 z M 120,175 l 5,0 0,5 -5,0 z M 135,175 l 5,0 0,5 -5,0 z M 140,175 l 5,0 0,5 -5,0 z M 150,175 l 5,0 0,5 -5,0 z M 155,175 l 5,0 0,5 -5,0 z M 190,175 l 5,0 0,5 -5,0 z M 195,175 l 5,0 0,5 -5,0 z M 200,175 l 5,0 0,5 -5,0 z M 205,175 l 5,0 0,5 -5,0 z M 210,175 l 5,0 0,5 -5,0 z M 215,175 l 5,0 0,5 -5,0 z M 225,175 l 5,0 0,5 -5,0 z M 245,175 l 5,0 0,5 -5,0 z M 5,180 l 5,0 0,5 -5,0 z M 15,180 l 5,0 0,5 -5,0 z M 25,180 l 5,0 0,5 -5,0 z M 40,180 l 5,0 0,5 -5,0 z M 45,180 l 5,0 0,5 -5,0 z M 60,180 l 5,0 0,5 -5,0 z M 75,180 l 5,0 0,5 -5,0 z M 85,180 l 5,0 0,5 -5,0 z M 100,180 l 5,0 0,5 -5,0 z M 105,180 l 5,0 0,5 -5,0 z M 110,180 l 5,0 0,5 -5,0 z M 115,180 l 5,0 0,5 -5,0 z M 130,180 l 5,0 0,5 -5,0 z M 135,180 l 5,0 0,5 -5,0 z M 140,180 l 5,0 0,5 -5,0 z M 170,180 l 5,0 0,5 -5,0 z M 195,180 l 5,0 0,5 -5,0 z M 215,180 l 5,0 0,5 -5,0 z M 230,180 l 5,0 0,5 -5,0 z M 10,185 l 5,0 0,5 -5,0 z M 30,185 l 5,0 0,5 -5,0 z M 35,185 l 5,0 0,5 -5,0 z M 45,185 l 5,0 0,5 -5,0 z M 50,185 l 5,0 0,5 -5,0 z M 60,185 l 5,0 0,5 -5,0 z M 65,185 l 5,0 0,5 -5,0 z M 70,185 l 5,0 0,5 -5,0 z M 75,185 l 5,0 0,5 -5,0 z M 90,185 l 5,0 0,5 -5,0 z M 100,185 l 5,0 0,5 -5,0 z M 110,185 l 5,0 0,5 -5,0 z M 125,185 l 5,0 0,5 -5,0 z M 130,185 l 5,0 0,5 -5,0 z M 135,185 l 5,0 0,5 -5,0 z M 140,185 l 5,0 0,5 -5,0 z M 150,185 l 5,0 0,5 -5,0 z M 155,185 l 5,0 0,5 -5,0 z M 160,185 l 5,0 0,5 -5,0 z M 180,185 l 5,0 0,5 -5,0 z M 185,185 l 5,0 0,5 -5,0 z M 195,185 l 5,0 0,5 -5,0 z M 205,185 l 5,0 0,5 -5,0 z M 215,185 l 5,0 0,5 -5,0 z M 220,185 l 5,0 0,5 -5,0 z M 225,185 l 5,0 0,5 -5,0 z M 235,185 l 5,0 0,5 -5,0 z M 245,185 l 5,0 0,5 -5,0 z M 5,190 l 5,0 0,5 -5,0 z M 10,190 l 5,0 0,5 -5,0 z M 20,190 l 5,0 0,5 -5,0 z M 55,190 l 5,0 0,5 -5,0 z M 65,190 l 5,0 0,5 -5,0 z M 80,190 l 5,0 0,5 -5,0 z M 95,190 l 5,0 0,5 -5,0 z M 110,190 l 5,0 0,5 -5,0 z M 115,190 l 5,0 0,5 -5,0 z M 130,190 l 5,0 0,5 -5,0 z M 150,190 l 5,0 0,5 -5,0 z M 155,190 l 5,0 0,5 -5,0 z M 165,190 l 5,0 0,5 -5,0 z M 170,190 l 5,0 0,5 -5,0 z M 180,190 l 5,0 0,5 -5,0 z M 190,190 l 5,0 0,5 -5,0 z M 215,190 l 5,0 0,5 -5,0 z M 240,190 l 5,0 0,5 -5,0 z M 245,190 l 5,0 0,5 -5,0 z M 10,195 l 5,0 0,5 -5,0 z M 30,195 l 5,0 0,5 -5,0 z M 35,195 l 5,0 0,5 -5,0 z M 40,195 l 5,0 0,5 -5,0 z M 50,195 l 5,0 0,5 -5,0 z M 60,195 l 5,0 0,5 -5,0 z M 65,195 l 5,0 0,5 -5,0 z M 90,195 l 5,0 0,5 -5,0 z M 95,195 l 5,0 0,5 -5,0 z M 110,195 l 5,0 0,5 -5,0 z M 120,195 l 5,0 0,5 -5,0 z M 130,195 l 5,0 0,5 -5,0 z M 140,195 l 5,0 0,5 -5,0 z M 145,195 l 5,0 0,5 -5,0 z M 165,195 l 5,0 0,5 -5,0 z M 170,195 l 5,0 0,5 -5,0 z M 185,195 l 5,0 0,5 -5,0 z M 190,195 l 5,0 0,5 -5,0 z M 200,195 l 5,0 0,5 -5,0 z M 220,195 l 5,0 0,5 -5,0 z M 225,195 l 5,0 0,5 -5,0 z M 235,195 l 5,0 0,5 -5,0 z M 10,200 l 5,0 0,5 -5,0 z M 15,200 l 5,0 0,5 -5,0 z M 20,200 l 5,0 0,5 -5,0 z M 45,200 l 5,0 0,5 -5,0 z M 50,200 l 5,0 0,5 -5,0 z M 55,200 l 5,0 0,5 -5,0 z M 65,200 l 5,0 0,5 -5,0 z M 70,200 l 5,0 0,5 -5,0 z M 75,200 l 5,0 0,5 -5,0 z M 80,200 l 5,0 0,5 -5,0 z M 90,200 l 5,0 0,5 -5,0 z M 95,200 l 5,0 0,5 -5,0 z M 110,200 l 5,0 0,5 -5,0 z M 120,200 l 5,0 0,5 -5,0 z M 125,200 l 5,0 0,5 -5,0 z M 145,200 l 5,0 0,5 -5,0 z M 150,200 l 5,0 0,5 -5,0 z M 155,200 l 5,0 0,5 -5,0 z M 160,200 l 5,0 0,5 -5,0 z M 165,200 l 5,0 0,5 -5,0 z M 190,200 l 5,0 0,5 -5,0 z M 205,200 l 5,0 0,5 -5,0 z M 220,200 l 5,0 0,5 -5,0 z M 230,200 l 5,0 0,5 -5,0 z M 240,200 l 5,0 0,5 -5,0 z M 245,200 l 5,0 0,5 -5,0 z M 5,205 l 5,0 0,5 -5,0 z M 10,205 l 5,0 0,5 -5,0 z M 15,205 l 5,0 0,5 -5,0 z M 35,205 l 5,0 0,5 -5,0 z M 50,205 l 5,0 0,5 -5,0 z M 55,205 l 5,0 0,5 -5,0 z M 70,205 l 5,0 0,5 -5,0 z M 75,205 l 5,0 0,5 -5,0 z M 80,205 l 5,0 0,5 -5,0 z M 85,205 l 5,0 0,5 -5,0 z M 95,205 l 5,0 0,5 -5,0 z M 100,205 l 5,0 0,5 -5,0 z M 105,205 l 5,0 0,5 -5,0 z M 115,205 l 5,0 0,5 -5,0 z M 120,205 l 5,0 0,5 -5,0 z M 125,205 l 5,0 0,5 -5,0 z M 130,205 l 5,0 0,5 -5,0 z M 135,205 l 5,0 0,5 -5,0 z M 140,205 l 5,0 0,5 -5,0 z M 150,205 l 5,0 0,5 -5,0 z M 165,205 l 5,0 0,5 -5,0 z M 175,205 l 5,0 0,5 -5,0 z M 195,205 l 5,0 0,5 -5,0 z M 205,205 l 5,0 0,5 -5,0 z M 210,205 l 5,0 0,5 -5,0 z M 215,205 l 5,0 0,5 -5,0 z M 220,205 l 5,0 0,5 -5,0 z M 225,205 l 5,0 0,5 -5,0 z M 235,205 l 5,0 0,5 -5,0 z M 240,205 l 5,0 0,5 -5,0 z M 245,205 l 5,0 0,5 -5,0 z M 45,210 l 5,0 0,5 -5,0 z M 55,210 l 5,0 0,5 -5,0 z M 65,210 l 5,0 0,5 -5,0 z M 85,210 l 5,0 0,5 -5,0 z M 100,210 l 5,0 0,5 -5,0 z M 115,210 l 5,0 0,5 -5,0 z M 135,210 l 5,0 0,5 -5,0 z M 155,210 l 5,0 0,5 -5,0 z M 170,210 l 5,0 0,5 -5,0 z M 175,210 l 5,0 0,5 -5,0 z M 195,210 l 5,0 0,5 -5,0 z M 200,210 l 5,0 0,5 -5,0 z M 205,210 l 5,0 0,5 -5,0 z M 225,210 l 5,0 0,5 -5,0 z M 5,215 l 5,0 0,5 -5,0 z M 10,215 l 5,0 0,5 -5,0 z M 15,215 l 5,0 0,5 -5,0 z M 20,215 l 5,0 0,5 -5,0 z M 25,215 l 5,0 0,5 -5,0 z M 30,215 l 5,0 0,5 -5,0 z M 35,215 l 5,0 0,5 -5,0 z M 45,215 l 5,0 0,5 -5,0 z M 50,215 l 5,0 0,5 -5,0 z M 60,215 l 5,0 0,5 -5,0 z M 65,215 l 5,0 0,5 -5,0 z M 80,215 l 5,0 0,5 -5,0 z M 95,215 l 5,0 0,5 -5,0 z M 100,215 l 5,0 0,5 -5,0 z M 115,215 l 5,0 0,5 -5,0 z M 125,215 l 5,0 0,5 -5,0 z M 135,215 l 5,0 0,5 -5,0 z M 140,215 l 5,0 0,5 -5,0 z M 145,215 l 5,0 0,5 -5,0 z M 150,215 l 5,0 0,5 -5,0 z M 160,215 l 5,0 0,5 -5,0 z M 175,215 l 5,0 0,5 -5,0 z M 205,215 l 5,0 0,5 -5,0 z M 215,215 l 5,0 0,5 -5,0 z M 225,215 l 5,0 0,5 -5,0 z M 240,215 l 5,0 0,5 -5,0 z M 245,215 l 5,0 0,5 -5,0 z M 5,220 l 5,0 0,5 -5,0 z M 35,220 l 5,0 0,5 -5,0 z M 50,220 l 5,0 0,5 -5,0 z M 55,220 l 5,0 0,5 -5,0 z M 60,220 l 5,0 0,5 -5,0 z M 65,220 l 5,0 0,5 -5,0 z M 70,220 l 5,0 0,5 -5,0 z M 80,220 l 5,0 0,5 -5,0 z M 90,220 l 5,0 0,5 -5,0 z M 95,220 l 5,0 0,5 -5,0 z M 105,220 l 5,0 0,5 -5,0 z M 110,220 l 5,0 0,5 -5,0 z M 115,220 l 5,0 0,5 -5,0 z M 135,220 l 5,0 0,5 -5,0 z M 145,220 l 5,0 0,5 -5,0 z M 155,220 l 5,0 0,5 -5,0 z M 160,220 l 5,0 0,5 -5,0 z M 165,220 l 5,0 0,5 -5,0 z M 170,220 l 5,0 0,5 -5,0 z M 175,220 l 5,0 0,5 -5,0 z M 190,220 l 5,0 0,5 -5,0 z M 205,220 l 5,0 0,5 -5,0 z M 225,220 l 5,0 0,5 -5,0 z M 230,220 l 5,0 0,5 -5,0 z M 240,220 l 5,0 0,5 -5,0 z M 5,225 l 5,0 0,5 -5,0 z M 15,225 l 5,0 0,5 -5,0 z M 20,225 l 5,0 0,5 -5,0 z M 25,225 l 5,0 0,5 -5,0 z M 35,225 l 5,0 0,5 -5,0 z M 45,225 l 5,0 0,5 -5,0 z M 65,225 l 5,0 0,5 -5,0 z M 80,225 l 5,0 0,5 -5,0 z M 95,225 l 5,0 0,5 -5,0 z M 115,225 l 5,0 0,5 -5,0 z M 120,225 l 5,0 0,5 -5,0 z M 125,225 l 5,0 0,5 -5,0 z M 130,225 l 5,0 0,5 -5,0 z M 135,225 l 5,0 0,5 -5,0 z M 150,225 l 5,0 0,5 -5,0 z M 170,225 l 5,0 0,5 -5,0 z M 175,225 l 5,0 0,5 -5,0 z M 180,225 l 5,0 0,5 -5,0 z M 185,225 l 5,0 0,5 -5,0 z M 195,225 l 5,0 0,5 -5,0 z M 200,225 l 5,0 0,5 -5,0 z M 205,225 l 5,0 0,5 -5,0 z M 210,225 l 5,0 0,5 -5,0 z M 215,225 l 5,0 0,5 -5,0 z M 220,225 l 5,0 0,5 -5,0 z M 225,225 l 5,0 0,5 -5,0 z M 230,225 l 5,0 0,5 -5,0 z M 240,225 l 5,0 0,5 -5,0 z M 245,225 l 5,0 0,5 -5,0 z M 5,230 l 5,0 0,5 -5,0 z M 15,230 l 5,0 0,5 -5,0 z M 20,230 l 5,0 0,5 -5,0 z M 25,230 l 5,0 0,5 -5,0 z M 35,230 l 5,0 0,5 -5,0 z M 45,230 l 5,0 0,5 -5,0 z M 60,230 l 5,0 0,5 -5,0 z M 70,230 l 5,0 0,5 -5,0 z M 85,230 l 5,0 0,5 -5,0 z M 90,230 l 5,0 0,5 -5,0 z M 95,230 l 5,0 0,5 -5,0 z M 100,230 l 5,0 0,5 -5,0 z M 110,230 l 5,0 0,5 -5,0 z M 120,230 l 5,0 0,5 -5,0 z M 130,230 l 5,0 0,5 -5,0 z M 145,230 l 5,0 0,5 -5,0 z M 150,230 l 5,0 0,5 -5,0 z M 155,230 l 5,0 0,5 -5,0 z M 165,230 l 5,0 0,5 -5,0 z M 180,230 l 5,0 0,5 -5,0 z M 185,230 l 5,0 0,5 -5,0 z M 190,230 l 5,0 0,5 -5,0 z M 205,230 l 5,0 0,5 -5,0 z M 215,230 l 5,0 0,5 -5,0 z M 230,230 l 5,0 0,5 -5,0 z M 235,230 l 5,0 0,5 -5,0 z M 245,230 l 5,0 0,5 -5,0 z M 5,235 l 5,0 0,5 -5,0 z M 15,235 l 5,0 0,5 -5,0 z M 20,235 l 5,0 0,5 -5,0 z M 25,235 l 5,0 0,5 -5,0 z M 35,235 l 5,0 0,5 -5,0 z M 45,235 l 5,0 0,5 -5,0 z M 50,235 l 5,0 0,5 -5,0 z M 70,235 l 5,0 0,5 -5,0 z M 75,235 l 5,0 0,5 -5,0 z M 80,235 l 5,0 0,5 -5,0 z M 85,235 l 5,0 0,5 -5,0 z M 90,235 l 5,0 0,5 -5,0 z M 95,235 l 5,0 0,5 -5,0 z M 100,235 l 5,0 0,5 -5,0 z M 110,235 l 5,0 0,5 -5,0 z M 125,235 l 5,0 0,5 -5,0 z M 135,235 l 5,0 0,5 -5,0 z M 140,235 l 5,0 0,5 -5,0 z M 145,235 l 5,0 0,5 -5,0 z M 160,235 l 5,0 0,5 -5,0 z M 165,235 l 5,0 0,5 -5,0 z M 170,235 l 5,0 0,5 -5,0 z M 195,235 l 5,0 0,5 -5,0 z M 200,235 l 5,0 0,5 -5,0 z M 220,235 l 5,0 0,5 -5,0 z M 230,235 l 5,0 0,5 -5,0 z M 245,235 l 5,0 0,5 -5,0 z M 5,240 l 5,0 0,5 -5,0 z M 35,240 l 5,0 0,5 -5,0 z M 45,240 l 5,0 0,5 -5,0 z M 60,240 l 5,0 0,5 -5,0 z M 70,240 l 5,0 0,5 -5,0 z M 85,240 l 5,0 0,5 -5,0 z M 90,240 l 5,0 0,5 -5,0 z M 95,240 l 5,0 0,5 -5,0 z M 100,240 l 5,0 0,5 -5,0 z M 105,240 l 5,0 0,5 -5,0 z M 115,240 l 5,0 0,5 -5,0 z M 120,240 l 5,0 0,5 -5,0 z M 125,240 l 5,0 0,5 -5,0 z M 135,240 l 5,0 0,5 -5,0 z M 145,240 l 5,0 0,5 -5,0 z M 150,240 l 5,0 0,5 -5,0 z M 155,240 l 5,0 0,5 -5,0 z M 160,240 l 5,0 0,5 -5,0 z M 165,240 l 5,0 0,5 -5,0 z M 170,240 l 5,0 0,5 -5,0 z M 175,240 l 5,0 0,5 -5,0 z M 190,240 l 5,0 0,5 -5,0 z M 200,240 l 5,0 0,5 -5,0 z M 230,240 l 5,0 0,5 -5,0 z M 5,245 l 5,0 0,5 -5,0 z M 10,245 l 5,0 0,5 -5,0 z M 15,245 l 5,0 0,5 -5,0 z M 20,245 l 5,0 0,5 -5,0 z M 25,245 l 5,0 0,5 -5,0 z M 30,245 l 5,0 0,5 -5,0 z M 35,245 l 5,0 0,5 -5,0 z M 45,245 l 5,0 0,5 -5,0 z M 55,245 l 5,0 0,5 -5,0 z M 70,245 l 5,0 0,5 -5,0 z M 85,245 l 5,0 0,5 -5,0 z M 95,245 l 5,0 0,5 -5,0 z M 100,245 l 5,0 0,5 -5,0 z M 105,245 l 5,0 0,5 -5,0 z M 110,245 l 5,0 0,5 -5,0 z M 120,245 l 5,0 0,5 -5,0 z M 125,245 l 5,0 0,5 -5,0 z M 130,245 l 5,0 0,5 -5,0 z M 140,245 l 5,0 0,5 -5,0 z M 145,245 l 5,0 0,5 -5,0 z M 150,245 l 5,0 0,5 -5,0 z M 175,245 l 5,0 0,5 -5,0 z M 185,245 l 5,0 0,5 -5,0 z M 190,245 l 5,0 0,5 -5,0 z M 200,245 l 5,0 0,5 -5,0 z M 215,245 l 5,0 0,5 -5,0 z M 245,245 l 5,0 0,5 -5,0 z " />
	</g>
</svg>
